<svg id="Layer_2" enable-background="new 0 0 24 24" height="512" viewBox="0 0 24 24" width="512" xmlns="http://www.w3.org/2000/svg"><g><path d="m16.5 20h-9c-1.378 0-2.5-1.121-2.5-2.5v-11c0-1.379 1.122-2.5 2.5-2.5h9c1.378 0 2.5 1.121 2.5 2.5v11c0 1.379-1.122 2.5-2.5 2.5zm-9-15c-.827 0-1.5.673-1.5 1.5v11c0 .827.673 1.5 1.5 1.5h9c.827 0 1.5-.673 1.5-1.5v-11c0-.827-.673-1.5-1.5-1.5z"/></g><g><path d="m14.5 15c-.128 0-.256-.049-.354-.146l-2.5-2.5c-.093-.094-.146-.221-.146-.354v-4c0-.276.224-.5.5-.5s.5.224.5.5v3.793l2.354 2.354c.195.195.195.512 0 .707-.098.097-.226.146-.354.146z"/></g><g><path d="m15 24h-6c-.208 0-.395-.129-.468-.324l-1.5-4c-.097-.259.034-.547.292-.644.259-.101.547.033.644.292l1.379 3.676h5.307l1.378-3.676c.097-.259.384-.394.644-.292.258.097.389.385.292.644l-1.5 4c-.073.195-.26.324-.468.324z"/></g><g><path d="m16.5 5c-.202 0-.393-.124-.468-.324l-1.379-3.676h-5.306l-1.379 3.676c-.097.258-.385.392-.644.292-.258-.097-.389-.385-.292-.644l1.5-4c.073-.195.26-.324.468-.324h6c.208 0 .395.129.468.324l1.5 4c.097.259-.034.547-.292.644-.058.022-.117.032-.176.032z"/></g></svg>